<svg xmlns="http://www.w3.org/2000/svg" xmlns:xlink="http://www.w3.org/1999/xlink" width="500" zoomAndPan="magnify" viewBox="0 0 375 374.999991" height="500" preserveAspectRatio="xMidYMid meet" version="1.0"><defs><g/></defs><rect x="-37.5" width="450" fill="#ffffff" y="-37.499999" height="449.999989" fill-opacity="1"/><rect x="-37.5" width="450" fill="#ffffff" y="-37.499999" height="449.999989" fill-opacity="1"/><rect x="-37.5" width="450" fill="#007acc" y="-37.499999" height="449.999989" fill-opacity="1"/><g fill="#ffffff" fill-opacity="1"><g transform="translate(95.49084, 319.202153)"><g><path d="M 91.578125 -125.3125 C 106.878906 -125.3125 119.234375 -120.722656 128.640625 -111.546875 C 138.054688 -102.367188 142.765625 -88.75 142.765625 -70.6875 L 142.765625 0 L 106.953125 0 L 106.953125 -65.1875 C 106.953125 -74.976562 104.804688 -82.28125 100.515625 -87.09375 C 96.234375 -91.914062 90.039062 -94.328125 81.9375 -94.328125 C 72.90625 -94.328125 65.710938 -91.535156 60.359375 -85.953125 C 55.003906 -80.367188 52.328125 -72.066406 52.328125 -61.046875 L 52.328125 0 L 16.53125 0 L 16.53125 -170.296875 L 52.328125 -170.296875 L 52.328125 -110.625 C 57.066406 -115.363281 62.800781 -118.992188 69.53125 -121.515625 C 76.269531 -124.046875 83.617188 -125.3125 91.578125 -125.3125 Z M 91.578125 -125.3125 "/></g></g></g><g fill="#ffffff" fill-opacity="1"><g transform="translate(254.085409, 319.202153)"><g><path d="M 16.53125 -123.484375 L 52.328125 -123.484375 L 52.328125 0 L 16.53125 0 Z M 34.421875 -140.6875 C 27.847656 -140.6875 22.492188 -142.597656 18.359375 -146.421875 C 14.222656 -150.253906 12.15625 -155 12.15625 -160.65625 C 12.15625 -166.320312 14.222656 -171.066406 18.359375 -174.890625 C 22.492188 -178.710938 27.847656 -180.625 34.421875 -180.625 C 41.003906 -180.625 46.359375 -178.785156 50.484375 -175.109375 C 54.617188 -171.441406 56.6875 -166.851562 56.6875 -161.34375 C 56.6875 -155.375 54.617188 -150.4375 50.484375 -146.53125 C 46.359375 -142.632812 41.003906 -140.6875 34.421875 -140.6875 Z M 34.421875 -140.6875 "/></g></g></g></svg>