<svg xmlns="http://www.w3.org/2000/svg" viewBox="0 0 500 500"><circle fill="#004aad" cx="301.75" cy="159.83" r="30.78"/><path fill="#004aad" d="M211.63 240.25h1.76q.79-.01 1.14-.72c.74-1.47 1-2.97 1.95-4.37q4.41-6.54 9.57-11.35c2.49-2.31 5.25-4.05 7.93-6.1q1.49-1.14 3.35-2.02 5.53-2.61 10.02-4.23 6.18-2.23 14.9-2.43c12.4-.27 23.38-.25 33.36 4.36q2.11.97 4.3 1.78 2.08.77 4.13 2.09 10.95 7.01 17.07 19.05.67 1.32 1.32 2.58 1.72 3.35 3.37 7.04 1.44 3.21 2.6 7.27 2.08 7.26 3.48 14.67 1.13 5.98 1.17 14.62.29 54.5.18 118.99 0 .52-.52.52h-54.53q-.64 0-.64-.65-.07-53.45-.01-107.34c0-7.14-1.19-15.9-4.58-22.26q-.86-1.63-1.53-3.38c-.94-2.48-3.37-4.44-5.04-6.49q-1.49-1.84-3.64-2.9c-1.97-.97-3.67-2.29-5.76-2.99q-12.64-4.24-25.06-.01-2.19.75-4.04 2.03c-1.81 1.26-3.64 1.75-5.21 3.46q-4.6 5-6.39 8.65c-4 8.17-5.37 16.72-5.34 26.19q.12 53.12.04 105.16 0 .53-.53.53h-54.73q-.53 0-.53-.53l-.01-264.94a.29.29 0 0 1 .29-.29l55.02-.01q.51 0 .51.51v102.88q0 .63.63.63Z"/></svg>